<svg width="661" height="224" viewBox="0 0 661 224" fill="none" xmlns="http://www.w3.org/2000/svg">
<path d="M189.737 48.0041L111.96 3.01975C104.982 -1.00658 96.3192 -1.00658 89.327 3.01975C82.349 7.06025 78.0178 14.5742 78.0178 22.641V28.5104L72.9506 25.5757C65.9726 21.5494 57.3103 21.5494 50.3181 25.5757C43.3401 29.6162 39.0089 37.1301 39.0089 45.2111V51.0805L33.9417 48.1458C26.9637 44.1195 18.3013 44.1195 11.3092 48.1458C4.33116 52.1863 0 59.7003 0 67.7813V208.731C0 212.786 2.34958 216.557 6.00136 218.315C9.63898 220.087 14.0551 219.605 17.2256 217.096L55.7958 186.629L115.272 221.023C116.913 221.973 118.754 222.44 120.594 222.44C122.434 222.44 124.274 221.958 125.916 221.023C129.199 219.123 131.238 215.593 131.238 211.793V126.971C131.238 113.049 123.764 100.091 111.733 93.1301L92.2286 81.8451V22.6552C92.2286 19.6496 93.8422 16.8425 96.4465 15.3397C99.0509 13.837 102.278 13.837 104.882 15.3397L182.66 60.3099C190.317 64.7332 195.073 72.9985 195.073 81.8451V187.465C195.073 190.471 193.459 193.278 190.855 194.781L170.246 206.704V104.401C170.246 90.479 162.773 77.521 150.742 70.56L102.858 42.8719V59.2749L143.651 82.8658C151.308 87.2891 156.064 95.5403 156.064 104.401V212.843C156.064 216.628 158.102 220.172 161.386 222.072C163.028 223.022 164.868 223.49 166.708 223.49C168.548 223.49 170.388 223.008 172.03 222.072L197.96 207.072C204.938 203.032 209.27 195.518 209.27 187.437V81.8167C209.241 67.9372 201.768 54.9651 189.737 48.0041ZM104.614 105.436C112.271 109.859 117.027 118.11 117.027 126.971V205.655L67.7702 177.173L83.5804 164.697C89.0581 160.373 92.2003 153.894 92.2003 146.904V98.2765L104.614 105.436ZM78.0178 90.0537V146.876C78.0178 149.485 76.843 151.909 74.8048 153.511L14.1825 201.387V67.7671C14.1825 64.7615 15.7961 61.9544 18.4004 60.4516C21.0048 58.9489 24.2319 58.9489 26.8363 60.4516L39.0089 67.4835V168.213L53.1914 157.013V45.2111C53.1914 42.2056 54.805 39.3985 57.4093 37.8957C60.0137 36.3929 63.2409 36.3929 65.8452 37.8957L78.0178 44.9276V73.6365L63.8353 65.4278V81.8451L78.0178 90.0537Z" fill="#0099FF"/>
<path d="M386.678 106.528H353.26V79.917H336.204V148.18H353.26V121.57H386.678V148.18H404.356V79.917H386.678V106.528Z" fill="#EEEEEE"/>
<path d="M471.787 79.917H444.498C436.939 79.917 432.339 81.3489 428.857 84.8365C425.39 88.3099 424.059 92.719 424.059 100.502V127.623C424.059 135.407 425.39 139.802 428.857 143.289C432.325 146.777 436.925 148.209 444.498 148.209H471.787C479.345 148.209 483.945 146.777 487.427 143.289C490.909 139.816 492.226 135.407 492.226 127.623V100.502C492.226 92.719 490.895 88.3241 487.427 84.8365C483.945 81.3489 479.345 79.917 471.787 79.917ZM475.156 128.02C475.156 132.018 473.825 133.138 469.027 133.138H447.258C442.46 133.138 441.129 132.018 441.129 128.02V100.077C441.129 96.079 442.46 94.959 447.258 94.959H469.027C473.938 94.959 475.156 95.9797 475.156 100.077V128.02Z" fill="#EEEEEE"/>
<path d="M590.187 79.917V94.959H616.443V148.18H633.513V94.959H659.67V79.917H590.187Z" fill="#EEEEEE"/>
<path d="M558.934 107.236H534.518C529.72 107.236 528.39 106.116 528.39 102.118V100.077C528.39 96.079 529.72 94.959 534.518 94.959H575.82V79.917H531.659C523.988 79.917 519.402 81.3489 516.019 84.8365C512.947 88.0122 511.221 92.9175 511.221 98.3474V102.445C511.221 107.874 512.962 112.879 516.019 115.955C519.387 119.429 524.087 120.875 531.659 120.875H556.075C560.873 120.875 562.204 121.995 562.204 125.993V128.034C562.204 132.032 560.873 133.152 556.075 133.152H512.339V148.194H558.934C566.592 148.194 571.192 146.763 574.575 143.275C577.632 140.099 579.373 135.194 579.373 129.764V125.667C579.373 120.237 577.632 115.232 574.575 112.156C571.192 108.668 566.493 107.236 558.934 107.236Z" fill="#EEEEEE"/>
<path d="M295.369 79.3782H268.08C260.522 79.3782 255.922 80.8101 252.44 84.2977C248.972 87.7711 247.641 92.1803 247.641 99.9494V110.313V113.503V148.166H264.711V113.517V110.327V99.5524C264.711 95.5544 266.042 94.4344 270.84 94.4344H292.609C297.521 94.4344 298.738 95.4552 298.738 99.5524V110.327V113.517V148.18H315.808V113.517V110.327V99.9636C315.808 92.1803 314.477 87.7853 311.01 84.3119C307.542 80.8101 302.942 79.3782 295.369 79.3782Z" fill="#0099FF"/>
</svg>
